<svg width="77" height="27" viewBox="0 0 77 27" fill="none" xmlns="http://www.w3.org/2000/svg">
<path d="M70.8985 0.165944C70.4728 0.36078 70.047 0.800964 69.9244 1.18342C69.8738 1.32774 69.8522 1.65247 69.8666 1.90503C69.9821 3.74515 72.4717 4.14204 73.2366 2.44624C73.4242 2.03492 73.4242 1.61639 73.2438 1.12569C72.8902 0.180377 71.815 -0.267024 70.8985 0.165944Z" fill="white"/>
<path d="M75.1416 0.129856C74.1963 0.562824 74.1963 2.02048 75.1416 2.45345C75.8199 2.75653 76.5487 2.51118 76.8951 1.85451C77.0972 1.45762 76.9961 0.772092 76.6859 0.440149C76.2818 0.00718123 75.6828 -0.115493 75.1416 0.129856ZM76.3323 0.411285C77.1477 0.995792 76.7364 2.37407 75.7405 2.37407C75.4447 2.37407 75.0261 2.17202 74.853 1.94832C74.4416 1.41433 74.687 0.555608 75.3364 0.288611C75.5962 0.173152 76.0869 0.238098 76.3323 0.411285Z" fill="white"/>
<path d="M75.12 1.32777C75.12 1.8762 75.1416 2.01331 75.221 2.01331C75.2932 2.01331 75.3364 1.9195 75.3509 1.73909C75.3797 1.34221 75.6107 1.33499 75.8632 1.72466C75.9715 1.88342 76.1086 2.01331 76.1663 2.01331C76.3178 2.01331 76.3034 1.95558 76.0869 1.67415L75.8993 1.42158L76.0508 1.32056C76.2168 1.19788 76.2529 0.86594 76.1158 0.728834C76.0653 0.678321 75.8344 0.64224 75.5746 0.64224H75.12V1.32777ZM75.9426 0.952534C76.0436 1.11129 75.9065 1.21953 75.6034 1.21953C75.3942 1.21953 75.2932 1.08242 75.3653 0.887589C75.423 0.73605 75.8344 0.779346 75.9426 0.952534Z" fill="white"/>
<path d="M35.9146 2.69881C35.6909 2.75654 35.4094 2.85035 35.3012 2.90808C35.0703 3.03075 34.7456 3.42042 34.6301 3.7235C34.5435 3.9472 34.2765 5.41929 34.2765 5.67186V5.83783H40.5906C46.1831 5.83783 46.9336 5.85226 47.1862 5.95329C47.5542 6.09761 47.6985 6.32131 47.6985 6.75428C47.6985 7.19446 47.5109 7.50476 47.1501 7.68516C46.8831 7.81505 46.6017 7.82227 41.1318 7.85835L35.395 7.89443L34.9837 8.09648C34.3847 8.39234 34.1177 8.79645 33.9879 9.61187C33.9301 9.99432 33.4827 15.8105 33.4827 16.2218C33.4827 16.3734 33.5116 16.3734 35.4672 16.3734H37.4444L37.4805 16.1353C37.5021 16.0126 37.5887 14.8652 37.6681 13.6024C37.7547 12.3324 37.8413 11.2499 37.8629 11.1994C37.8918 11.12 38.2815 11.1056 39.8618 11.12L41.8174 11.1417L45.1512 15.0384C46.9841 17.1816 48.7088 19.1949 48.983 19.5124C49.9139 20.5948 50.5417 20.869 52.1148 20.8763C52.6127 20.8835 53.0457 20.8618 53.0745 20.833C53.1034 20.8041 51.2921 18.6465 49.0551 16.0342C46.8181 13.422 44.9564 11.2427 44.9275 11.1922C44.8914 11.1273 44.9492 11.1056 45.1512 11.1056C45.4543 11.1056 45.3677 11.0118 50.621 17.2032C53.1539 20.1835 53.4931 20.5082 54.3734 20.7392C54.9507 20.8907 56.3579 20.9701 56.3579 20.8546C56.3579 20.7824 55.1239 19.2743 54.0487 18.0331C53.6879 17.6218 50.5128 13.8477 48.8603 11.8633L48.2542 11.1489L48.8603 11.0262C50.3685 10.7232 51.054 10.0881 51.2272 8.83253C51.3571 7.94494 51.5375 4.84922 51.487 4.52449C51.3643 3.81009 50.7654 3.08848 50.0365 2.79984L49.6108 2.62665L42.9719 2.61222C37.466 2.605 36.2609 2.61943 35.9146 2.69881Z" fill="white"/>
<path d="M26.7719 2.71329C24.1813 2.97307 22.4566 3.38439 20.5732 4.17095C19.2094 4.74103 17.3765 5.88118 15.9621 7.04298C14.9446 7.87283 12.8592 9.95829 11.0768 11.9355C9.47479 13.7107 7.22335 15.991 6.24196 16.8425C4.69771 18.1775 2.92254 19.3826 1.22675 20.2557C0.649455 20.5516 0.165974 20.8041 0.151542 20.8186C0.137109 20.833 3.10294 20.8474 6.75431 20.8474L13.3859 20.8402L14.7209 19.1372C16.6043 16.7342 17.4919 15.6735 18.5022 14.656C21.1072 12.0077 23.3803 10.8314 26.4327 10.5644L26.9884 10.5139V9.51811C26.9884 7.92334 27.2265 6.39352 27.6883 4.97916C27.8254 4.56062 28.28 3.53593 28.7058 2.71329C28.7347 2.66278 27.277 2.66278 26.7719 2.71329Z" fill="white"/>
<path d="M55.0737 4.49563C54.0273 4.842 52.9738 5.72237 52.4903 6.6749C52.1872 7.28106 52.1367 7.64186 51.913 11.0262C51.7687 13.2199 51.7976 13.5374 52.2233 14.4106C52.5408 15.0601 53.1253 15.6662 53.7531 15.9981C54.6046 16.4528 54.316 16.4455 63.7042 16.4455C68.3947 16.4455 72.2337 16.4383 72.2337 16.4239C72.2625 16.2363 72.4501 13.9632 72.4501 13.79V13.5519L64.3031 13.5663C56.4231 13.5807 56.1489 13.5735 55.918 13.4436C55.4922 13.1911 55.384 12.9674 55.384 12.3468V11.7911L61.2651 11.7551C67.8462 11.7118 67.4205 11.7478 67.9112 11.1922C68.3297 10.7232 68.3442 10.6293 68.5173 8.2841C68.6256 6.79758 68.5967 6.4945 68.3442 5.98937C68.1421 5.5997 67.2257 4.76984 66.7566 4.54614L66.3525 4.35852L60.9765 4.34409L55.6005 4.32966L55.0737 4.49563ZM64.7072 7.37487C65.068 7.5697 65.1546 7.80783 65.1041 8.43564L65.0536 8.97685L60.3487 8.9985L55.6365 9.01293V8.59439C55.6365 8.00989 55.8602 7.59135 56.286 7.37487L56.6035 7.20168L60.5435 7.22333C64.1444 7.24498 64.498 7.25219 64.7072 7.37487Z" fill="white"/>
<path d="M69.7006 4.33688C69.6934 4.37296 69.4336 7.84392 69.3182 9.4459C69.2532 10.2974 69.1883 11.1706 69.1666 11.3726L69.1306 11.7551H70.8841H72.6448L72.6953 10.9396C72.7242 10.4995 72.8252 9.09231 72.919 7.82227C73.0201 6.55223 73.1139 5.24611 73.1427 4.91417L73.186 4.32245H71.4469C70.4872 4.32245 69.7078 4.32966 69.7006 4.33688Z" fill="white"/>
<path d="M25.8049 12.051C24.672 12.2169 23.3947 12.6716 22.3845 13.2633C20.6887 14.2519 19.2671 15.6807 17.2249 18.4661C16.626 19.2815 15.9765 20.1475 15.7817 20.3928L15.4281 20.8474H23.8277L32.22 20.8402L31.8953 20.5804C31.2314 20.0465 29.8965 18.6249 29.4707 17.9971C28.4027 16.4384 27.5512 14.3529 27.2553 12.5705L27.1615 12.0077L26.6925 12.0005C26.4399 11.9932 26.043 12.0149 25.8049 12.051Z" fill="white"/>
<path d="M0.461833 22.2473C0.0144323 22.4422 0 22.5143 0 24.3328C0 26.1729 0.0288645 26.2956 0.461833 26.5048C0.663884 26.5987 0.974178 26.6203 2.33081 26.6203C3.89671 26.6203 3.95444 26.6131 4.19257 26.4543C4.58225 26.1945 4.63276 25.9348 4.60389 24.2245C4.57503 22.0741 4.65441 22.1463 2.30916 22.1535C1.10407 22.1535 0.627804 22.1752 0.461833 22.2473ZM3.78847 24.3833V25.7904L2.29473 25.8121L0.793775 25.8265V24.3833V22.9401L2.29473 22.9545L3.78847 22.9762V24.3833Z" fill="white"/>
<path d="M7.14417 24.1163C7.14417 26.2667 7.15138 26.2884 7.57713 26.5121C7.86578 26.6636 10.211 26.6708 10.5574 26.5193C11.0264 26.3244 11.0409 26.2667 11.0409 24.0947V22.1391L10.6656 22.1607L10.2832 22.1824L10.2615 24.0081L10.2471 25.8265L9.07087 25.8121L7.90186 25.7905L7.88021 23.9648L7.86578 22.1463H7.50497H7.14417V24.1163Z" fill="white"/>
<path d="M13.5953 22.2473C13.5736 22.3051 13.5664 22.471 13.5808 22.6226L13.6025 22.904L14.3818 22.9256L15.154 22.9473V24.7802V26.6203H15.5508H15.9477V24.7802V22.9473L16.7271 22.9256L17.4992 22.904V22.5432V22.1824L15.5653 22.1607C13.9561 22.1463 13.6314 22.1607 13.5953 22.2473Z" fill="white"/>
<path d="M20.0969 22.2401C20.0753 22.2907 20.0681 23.2865 20.0753 24.4555L20.0969 26.5843H21.8071H23.5102L23.6978 26.4111C24.0009 26.1224 24.0442 25.841 24.0153 24.2246C23.9864 22.0742 24.0586 22.1463 21.735 22.1463C20.5082 22.1463 20.1186 22.168 20.0969 22.2401ZM23.2215 24.3978L23.2359 25.8266H22.0453H20.8546V24.3833V22.9401L22.0308 22.9545L23.1999 22.9762L23.2215 24.3978Z" fill="white"/>
<path d="M26.938 22.2906C26.8153 22.3628 26.671 22.4927 26.6349 22.5721C26.5844 22.6587 26.5555 23.3442 26.5555 24.3977C26.5555 26.7358 26.4328 26.6203 28.8286 26.6203C31.2243 26.6203 31.1017 26.743 31.1017 24.3833C31.1017 22.9256 31.0872 22.6587 30.9862 22.5143C30.7553 22.1896 30.5027 22.1463 28.7781 22.1463C27.3132 22.1463 27.1472 22.1607 26.938 22.2906ZM30.3079 24.3833V25.8265H28.8286H27.3493V24.3833V22.9401H28.8286H30.3079V24.3833Z" fill="white"/>
<path d="M34.089 22.2618C33.6849 22.4566 33.6632 22.5793 33.6632 24.4266V26.1152L33.9014 26.3461L34.1323 26.5843H35.9363H37.7404L37.9713 26.3461L38.2094 26.1152L38.2311 24.4555C38.2599 22.0453 38.3609 22.1463 35.9219 22.1463C34.623 22.1463 34.2694 22.168 34.089 22.2618ZM37.4517 24.3833V25.8266L35.958 25.8121L34.457 25.7905L34.4354 24.4555C34.4281 23.7267 34.4354 23.0844 34.4498 23.0339C34.4787 22.9618 34.8323 22.9401 35.9724 22.9401H37.4517V24.3833Z" fill="white"/>
<path d="M40.8074 22.2402C40.7858 22.2907 40.7786 23.2865 40.7858 24.4555L40.8074 26.5843L41.1827 26.6059L41.5579 26.6276L41.5796 25.74L41.6012 24.8524H41.9259H42.2507L42.9362 25.7328L43.6217 26.6203H44.1485C44.4299 26.6203 44.6681 26.5987 44.6681 26.5698C44.6681 26.5482 44.3939 26.1585 44.0547 25.7111C43.7155 25.2637 43.4413 24.8813 43.4413 24.8596C43.4413 24.838 43.5929 24.8163 43.7877 24.8163C44.531 24.8163 44.7835 24.4194 44.7258 23.3009C44.6681 22.1896 44.5887 22.1463 42.4383 22.1463C41.2188 22.1463 40.8291 22.168 40.8074 22.2402ZM43.9104 23.5174V24.0586H42.7558H41.6012L41.5796 23.4958L41.5579 22.9401L42.7341 22.9546L43.9104 22.9762V23.5174Z" fill="white"/>
<path d="M50.6718 22.269C50.2533 22.4711 50.2244 22.6082 50.2244 24.4194V26.043L50.4698 26.3173L50.7151 26.5843H52.4398H54.1572L54.1789 25.2998L54.1933 24.0225H53.0748H51.9563V24.3833V24.7369L52.6635 24.7586L53.3634 24.7802L53.3851 25.2998L53.4067 25.8266H52.2089H51.0182V24.3833V22.9401L52.5913 22.9257L54.1572 22.904V22.5432V22.1824L52.5336 22.168C51.1481 22.1536 50.8739 22.168 50.6718 22.269Z" fill="white"/>
<path d="M56.9354 22.269C56.5241 22.4783 56.5024 22.5865 56.5024 24.3689C56.5024 26.1657 56.5313 26.2956 56.9643 26.5049C57.1808 26.6059 57.4478 26.6203 58.826 26.6059L60.4352 26.5842V26.2234V25.8626L58.8621 25.841L57.289 25.8265L57.3106 25.2998L57.3323 24.7802L58.8838 24.7441L60.4352 24.708L60.4569 24.3689L60.4785 24.0225L58.9054 24.0081L57.3323 23.9864L57.3106 23.4669L57.289 22.9401L58.8621 22.9257L60.4352 22.904V22.5432V22.1824L58.8116 22.1607C57.3828 22.1463 57.1591 22.1607 56.9354 22.269Z" fill="white"/>
<path d="M63.3795 22.2906C63.2568 22.3628 63.1125 22.4927 63.0764 22.572C63.0259 22.6586 62.997 23.4236 62.997 24.6647V26.6203H63.3578H63.7114L63.7331 25.877L63.7547 25.141L64.9309 25.1193L66.0999 25.1049V25.8626V26.6203H66.4968H66.8937V24.6503C66.8937 22.9473 66.8793 22.6586 66.7783 22.5143C66.5546 22.204 66.2731 22.1463 64.8949 22.1463C63.7475 22.1463 63.5887 22.1607 63.3795 22.2906ZM66.0999 23.6256V24.3111L64.9309 24.2967L63.7547 24.2751L63.7331 23.705C63.7186 23.3875 63.7258 23.0916 63.7475 23.0339C63.7764 22.9617 64.0433 22.9401 64.9454 22.9401H66.0999V23.6256Z" fill="white"/>
<path d="M69.4552 22.2402C69.4336 22.2907 69.4263 23.2865 69.4336 24.4555L69.4552 26.5843L69.8304 26.6059L70.2057 26.6276L70.2273 25.74L70.249 24.8524L70.5737 24.8307L70.8984 24.8091L71.584 25.7111L72.2695 26.6131L72.7963 26.6203C73.0777 26.6203 73.3158 26.5915 73.3158 26.5554C73.3158 26.5265 73.0416 26.1369 72.7025 25.6967C72.3633 25.2565 72.0891 24.874 72.0891 24.8524C72.0891 24.8307 72.2551 24.8163 72.4499 24.8163C73.1715 24.8163 73.388 24.4988 73.388 23.4813C73.388 22.6731 73.287 22.4061 72.9189 22.2474C72.5798 22.1103 69.5057 22.0958 69.4552 22.2402ZM72.5798 23.4958L72.5581 24.0586H71.4036H70.249L70.2273 23.5968C70.2129 23.3442 70.2201 23.0917 70.2418 23.0411C70.2706 22.9618 70.5304 22.9401 71.4396 22.9401H72.6014L72.5798 23.4958Z" fill="white"/>
</svg>
